<svg xmlns="http://www.w3.org/2000/svg" viewBox="0 0 30 30"><title>Zentrieren aktiv</title><g id="Ebene_2" data-name="Ebene 2"><g id="Ebene_2-2" data-name="Ebene 2"><circle cx="15" cy="15" r="15" style="fill:#eb0000"/><path d="M7,23.5H6.6a.6.6,0,0,1,0-.8l4.3-4.3a.6.6,0,0,1,.8.8L7.4,23.4Z" style="fill:#888"/><path d="M18.6,11.9l-.4-.2a.5.5,0,0,1,0-.7l3.9-3.9a.5.5,0,0,1,.7,0,.6.6,0,0,1,0,.8L19,11.7Z" style="fill:#888"/><path d="M23.9,14.5H22.3a7.4,7.4,0,0,0-6.8-6.9V5.9h-1V7.6a7.4,7.4,0,0,0-7,6.9H5.8v1H7.5a7.4,7.4,0,0,0,7,6.9v1.7h1V22.4a7.4,7.4,0,0,0,6.8-6.9h1.6Zm-8.4,6.8V19.7h-1v1.7a6.5,6.5,0,0,1-6-5.9h1.7v-1H8.5a6.5,6.5,0,0,1,6-5.9v1.7h1V8.7a6.2,6.2,0,0,1,5.7,5.8H19.6v1h1.6A6.2,6.2,0,0,1,15.5,21.3Z" style="fill:#fff"/><polygon points="14.4 15.6 14.9 18.7 17.2 12.7 11.3 15.1 14.4 15.6" style="fill:#fff"/></g></g></svg>