<svg xmlns="http://www.w3.org/2000/svg" viewBox="0 0 30 30"><g data-name="Ebene 2"><circle cx="15" cy="15" r="15" fill="#eb0000"/><path d="M23.5 7.6l-2.1 2-1.4 1.5a5.7 5.7 0 0 0-1.1-1.1l1.5-1.4 2-2.1zM6.52 22.1l5.522-5.221 1.03 1.09-5.521 5.221z" fill="#525252"/><path fill="#fff" d="M17.8 12l-2.7 7.1-.6-3.6-3.7-.7 7-2.8z"/><path d="M23.3 14a9.1 9.1 0 0 0-1.9-4.4 9.4 9.4 0 0 0-1-1 8.4 8.4 0 0 0-4.5-2V5.5h-2v1.1A8.5 8.5 0 0 0 6.4 14h-1v2h1a8.6 8.6 0 0 0 7.4 7.4v1h2v-1a8.5 8.5 0 0 0 7.5-7.4h1v-2zm-2 2a6.6 6.6 0 0 1-5.5 5.4v-1h-2v1A6.6 6.6 0 0 1 8.5 16h.9v-2h-.9a6.4 6.4 0 0 1 5.4-5.4v1h2v-1a6.4 6.4 0 0 1 3 1.4 5.7 5.7 0 0 1 1.1 1.1 7 7 0 0 1 1.3 2.9h-1v2z" fill="#fff"/></g></svg>